<svg width="282" height="73" viewBox="0 0 282 73" fill="none" xmlns="http://www.w3.org/2000/svg">
<path d="M71.235 56V17.225H76.515L98.79 46.155H97.36V17.225H103.905V56H98.68L76.405 27.015H77.78V56H71.235ZM122.718 56V36.035L124.203 40.27L107.813 17.225H116.008L127.118 33.01H125.578L136.743 17.225H144.608L128.328 40.27L129.758 36.035V56H122.718ZM164.253 56.55C160.22 56.55 156.755 55.7433 153.858 54.13C150.998 52.48 148.798 50.17 147.258 47.2C145.718 44.1933 144.948 40.655 144.948 36.585C144.948 32.515 145.718 28.995 147.258 26.025C148.798 23.055 150.998 20.7633 153.858 19.15C156.755 17.5 160.22 16.675 164.253 16.675C166.857 16.675 169.313 17.0783 171.623 17.885C173.97 18.6917 175.895 19.8467 177.398 21.35L175.088 26.96C173.438 25.5667 171.752 24.5583 170.028 23.935C168.305 23.275 166.453 22.945 164.473 22.945C160.55 22.945 157.562 24.1367 155.508 26.52C153.455 28.8667 152.428 32.2217 152.428 36.585C152.428 40.9483 153.455 44.3217 155.508 46.705C157.562 49.0883 160.55 50.28 164.473 50.28C166.453 50.28 168.305 49.9683 170.028 49.345C171.752 48.685 173.438 47.6583 175.088 46.265L177.398 51.875C175.895 53.3417 173.97 54.4967 171.623 55.34C169.313 56.1467 166.857 56.55 164.253 56.55Z" fill="black"/>
<path d="M186.07 40.1288C186.07 39.9511 186.043 39.7916 185.988 39.6503C185.938 39.5045 185.842 39.3723 185.701 39.2538C185.56 39.1308 185.362 39.01 185.106 38.8915C184.851 38.773 184.521 38.65 184.115 38.5224C183.664 38.3766 183.236 38.2125 182.83 38.0302C182.429 37.8479 182.074 37.636 181.764 37.3945C181.458 37.1484 181.217 36.8635 181.039 36.54C180.866 36.2164 180.779 35.8404 180.779 35.412C180.779 34.9973 180.87 34.6214 181.053 34.2841C181.235 33.9423 181.49 33.6507 181.818 33.4091C182.146 33.163 182.534 32.9739 182.98 32.8417C183.432 32.7096 183.926 32.6435 184.464 32.6435C185.198 32.6435 185.838 32.7757 186.385 33.04C186.932 33.3043 187.355 33.6666 187.656 34.1269C187.962 34.5872 188.114 35.1135 188.114 35.706H186.077C186.077 35.4143 186.016 35.1591 185.893 34.9404C185.774 34.7171 185.592 34.5416 185.346 34.414C185.104 34.2864 184.799 34.2226 184.43 34.2226C184.074 34.2226 183.778 34.2773 183.541 34.3867C183.304 34.4915 183.126 34.635 183.008 34.8173C182.889 34.9951 182.83 35.1956 182.83 35.4189C182.83 35.5875 182.871 35.7402 182.953 35.8769C183.04 36.0136 183.167 36.1412 183.336 36.2597C183.505 36.3782 183.712 36.4898 183.958 36.5947C184.204 36.6995 184.489 36.802 184.812 36.9023C185.355 37.0663 185.831 37.2509 186.241 37.456C186.656 37.6611 187.002 37.8912 187.28 38.1464C187.558 38.4016 187.768 38.691 187.909 39.0146C188.05 39.3382 188.121 39.705 188.121 40.1152C188.121 40.5481 188.037 40.9355 187.868 41.2773C187.7 41.6191 187.456 41.9085 187.137 42.1454C186.818 42.3824 186.437 42.5624 185.995 42.6855C185.553 42.8085 185.059 42.8701 184.512 42.8701C184.02 42.8701 183.534 42.8063 183.056 42.6786C182.577 42.5465 182.142 42.3482 181.75 42.0839C181.363 41.8196 181.053 41.4824 180.82 41.0722C180.588 40.662 180.472 40.1767 180.472 39.6161H182.529C182.529 39.926 182.577 40.1881 182.673 40.4023C182.769 40.6165 182.903 40.7896 183.076 40.9218C183.254 41.054 183.464 41.1497 183.705 41.2089C183.951 41.2682 184.22 41.2978 184.512 41.2978C184.867 41.2978 185.159 41.2477 185.387 41.1474C185.619 41.0471 185.79 40.9081 185.899 40.7304C186.013 40.5527 186.07 40.3521 186.07 40.1288ZM189.768 41.7831C189.768 41.4915 189.869 41.2477 190.069 41.0517C190.274 40.8557 190.545 40.7577 190.883 40.7577C191.22 40.7577 191.489 40.8557 191.689 41.0517C191.894 41.2477 191.997 41.4915 191.997 41.7831C191.997 42.0748 191.894 42.3186 191.689 42.5146C191.489 42.7105 191.22 42.8085 190.883 42.8085C190.545 42.8085 190.274 42.7105 190.069 42.5146C189.869 42.3186 189.768 42.0748 189.768 41.7831ZM194.136 32.7802H197.848C198.609 32.7802 199.263 32.8941 199.81 33.122C200.361 33.3499 200.785 33.6871 201.081 34.1337C201.378 34.5803 201.526 35.1295 201.526 35.7812C201.526 36.3144 201.435 36.7724 201.252 37.1552C201.075 37.5335 200.822 37.8502 200.494 38.1054C200.17 38.3561 199.789 38.5566 199.352 38.707L198.703 39.0488H195.476L195.462 37.4492H197.862C198.222 37.4492 198.52 37.3854 198.757 37.2577C198.994 37.1301 199.172 36.9524 199.29 36.7245C199.414 36.4967 199.475 36.2324 199.475 35.9316C199.475 35.6126 199.416 35.3368 199.297 35.1044C199.179 34.872 198.999 34.6943 198.757 34.5712C198.516 34.4482 198.213 34.3867 197.848 34.3867H196.187V42.7333H194.136V32.7802ZM199.701 42.7333L197.431 38.2968L199.598 38.2831L201.895 42.6376V42.7333H199.701ZM203.358 41.7831C203.358 41.4915 203.458 41.2477 203.658 41.0517C203.863 40.8557 204.135 40.7577 204.472 40.7577C204.809 40.7577 205.078 40.8557 205.278 41.0517C205.484 41.2477 205.586 41.4915 205.586 41.7831C205.586 42.0748 205.484 42.3186 205.278 42.5146C205.078 42.7105 204.809 42.8085 204.472 42.8085C204.135 42.8085 203.863 42.7105 203.658 42.5146C203.458 42.3186 203.358 42.0748 203.358 41.7831ZM214.124 41.1337V42.7333H209.113V41.1337H214.124ZM209.776 32.7802V42.7333H207.725V32.7802H209.776Z" fill="black"/>
<path d="M71.5723 60.0469H72.8506L76.1113 68.1611L79.3652 60.0469H80.6504L76.6035 70H75.6055L71.5723 60.0469ZM71.1553 60.0469H72.2832L72.4678 66.1172V70H71.1553V60.0469ZM79.9326 60.0469H81.0605V70H79.748V66.1172L79.9326 60.0469ZM87.4655 60.9287L84.1706 70H82.8239L86.6179 60.0469H87.4861L87.4655 60.9287ZM90.2273 70L86.9255 60.9287L86.905 60.0469H87.7732L91.5808 70H90.2273ZM90.0564 66.3154V67.3955H84.4646V66.3154H90.0564ZM100.85 60.0469V70H99.5239L94.5131 62.3232V70H93.1938V60.0469H94.5131L99.5444 67.7441V60.0469H100.85ZM106.941 60.0469V70H105.642V60.0469H106.941ZM110.14 60.0469V61.127H102.449V60.0469H110.14ZM118.22 68.9268V70H112.949V68.9268H118.22ZM113.216 60.0469V70H111.896V60.0469H113.216ZM117.522 64.3262V65.3994H112.949V64.3262H117.522ZM118.151 60.0469V61.127H112.949V60.0469H118.151ZM127.79 60.0469V70H126.463L121.453 62.3232V70H120.133V60.0469H121.453L126.484 67.7441V60.0469H127.79ZM131.823 60.0469V70H130.503V60.0469H131.823ZM134.919 60.0469H136.197L139.458 68.1611L142.712 60.0469H143.997L139.95 70H138.952L134.919 60.0469ZM134.502 60.0469H135.63L135.814 66.1172V70H134.502V60.0469ZM143.279 60.0469H144.407V70H143.095V66.1172L143.279 60.0469ZM148.42 60.0469V70H147.1V60.0469H148.42ZM157.422 68.9268V70H152.152V68.9268H157.422ZM152.418 60.0469V70H151.099V60.0469H152.418ZM156.725 64.3262V65.3994H152.152V64.3262H156.725ZM157.354 60.0469V61.127H152.152V60.0469H157.354ZM166.992 60.0469V70H165.666L160.655 62.3232V70H159.336V60.0469H160.655L165.687 67.7441V60.0469H166.992ZM173.083 60.0469V70H171.784V60.0469H173.083ZM176.282 60.0469V61.127H168.592V60.0469H176.282ZM185.51 64.709V65.3379C185.51 66.0853 185.417 66.7552 185.23 67.3477C185.043 67.9401 184.774 68.4437 184.423 68.8584C184.073 69.2731 183.651 69.5898 183.159 69.8086C182.671 70.0273 182.124 70.1367 181.518 70.1367C180.93 70.1367 180.39 70.0273 179.898 69.8086C179.41 69.5898 178.987 69.2731 178.627 68.8584C178.271 68.4437 177.995 67.9401 177.799 67.3477C177.603 66.7552 177.506 66.0853 177.506 65.3379V64.709C177.506 63.9616 177.601 63.2939 177.793 62.7061C177.989 62.1136 178.264 61.61 178.62 61.1953C178.975 60.776 179.397 60.457 179.884 60.2383C180.377 60.0195 180.917 59.9102 181.505 59.9102C182.111 59.9102 182.658 60.0195 183.145 60.2383C183.637 60.457 184.059 60.776 184.41 61.1953C184.765 61.61 185.036 62.1136 185.223 62.7061C185.415 63.2939 185.51 63.9616 185.51 64.709ZM184.205 65.3379V64.6953C184.205 64.1029 184.143 63.5788 184.02 63.123C183.902 62.6673 183.726 62.2845 183.494 61.9746C183.261 61.6647 182.977 61.43 182.639 61.2705C182.307 61.111 181.928 61.0312 181.505 61.0312C181.094 61.0312 180.723 61.111 180.39 61.2705C180.062 61.43 179.78 61.6647 179.543 61.9746C179.31 62.2845 179.13 62.6673 179.003 63.123C178.875 63.5788 178.811 64.1029 178.811 64.6953V65.3379C178.811 65.9349 178.875 66.4635 179.003 66.9238C179.13 67.3796 179.312 67.7646 179.549 68.0791C179.791 68.389 180.076 68.6237 180.404 68.7832C180.737 68.9427 181.108 69.0225 181.518 69.0225C181.947 69.0225 182.327 68.9427 182.66 68.7832C182.992 68.6237 183.273 68.389 183.501 68.0791C183.733 67.7646 183.909 67.3796 184.027 66.9238C184.145 66.4635 184.205 65.9349 184.205 65.3379ZM193.166 64.4766L194.656 63.417C194.943 63.221 195.164 63.0251 195.319 62.8291C195.479 62.6286 195.559 62.3551 195.559 62.0088C195.559 61.7399 195.454 61.4961 195.244 61.2773C195.035 61.054 194.738 60.9424 194.356 60.9424C194.091 60.9424 193.868 61.0039 193.686 61.127C193.503 61.25 193.367 61.4141 193.275 61.6191C193.184 61.8197 193.139 62.0407 193.139 62.2822C193.139 62.4873 193.189 62.6992 193.289 62.918C193.389 63.1367 193.528 63.3646 193.706 63.6016C193.884 63.8385 194.087 64.0892 194.315 64.3535L199.024 70H197.507L193.645 65.3789C193.303 64.9779 192.997 64.611 192.729 64.2783C192.46 63.9411 192.248 63.6152 192.093 63.3008C191.942 62.9863 191.867 62.6605 191.867 62.3232C191.867 61.8037 191.97 61.3662 192.175 61.0107C192.385 60.6507 192.676 60.3773 193.05 60.1904C193.424 60.0036 193.861 59.9102 194.362 59.9102C194.85 59.9102 195.269 60.0081 195.62 60.2041C195.976 60.3955 196.249 60.6507 196.441 60.9697C196.632 61.2842 196.728 61.6305 196.728 62.0088C196.728 62.3278 196.671 62.6149 196.557 62.8701C196.443 63.1208 196.283 63.3509 196.078 63.5605C195.878 63.7702 195.643 63.9753 195.374 64.1758L193.399 65.6455C193.07 65.887 192.831 66.1172 192.681 66.3359C192.53 66.5547 192.432 66.7484 192.387 66.917C192.346 67.0856 192.325 67.2201 192.325 67.3203C192.325 67.6439 192.396 67.9401 192.537 68.209C192.678 68.4779 192.893 68.6943 193.18 68.8584C193.471 69.0179 193.836 69.0977 194.274 69.0977C194.656 69.0977 195.028 69.0111 195.388 68.8379C195.752 68.6602 196.078 68.4095 196.365 68.0859C196.652 67.7578 196.88 67.3682 197.049 66.917C197.222 66.4613 197.309 65.9577 197.309 65.4062H198.443C198.443 65.8574 198.4 66.2835 198.314 66.6846C198.227 67.0856 198.093 67.4593 197.91 67.8057C197.732 68.1475 197.505 68.4596 197.227 68.7422C197.186 68.7832 197.154 68.8311 197.131 68.8857C197.108 68.9404 197.076 68.9883 197.035 69.0293C196.693 69.3984 196.272 69.6764 195.771 69.8633C195.274 70.0456 194.775 70.1367 194.274 70.1367C193.613 70.1367 193.041 70.016 192.558 69.7744C192.079 69.5329 191.71 69.2002 191.45 68.7764C191.191 68.3525 191.061 67.8672 191.061 67.3203C191.061 66.901 191.149 66.5319 191.327 66.2129C191.51 65.8939 191.758 65.5954 192.072 65.3174C192.391 65.0394 192.756 64.7591 193.166 64.4766ZM210.296 68.9268V70H205.32V68.9268H210.296ZM205.58 60.0469V70H204.26V60.0469H205.58ZM213.502 60.0469V70H212.183V60.0469H213.502ZM216.599 60.0469H217.877L221.138 68.1611L224.392 60.0469H225.677L221.63 70H220.632L216.599 60.0469ZM216.182 60.0469H217.31L217.494 66.1172V70H216.182V60.0469ZM224.959 60.0469H226.087V70H224.774V66.1172L224.959 60.0469ZM232.355 66.0967H229.696V65.0234H232.355C232.87 65.0234 233.287 64.9414 233.606 64.7773C233.925 64.6133 234.158 64.3854 234.303 64.0938C234.454 63.8021 234.529 63.4694 234.529 63.0957C234.529 62.7539 234.454 62.4326 234.303 62.1318C234.158 61.8311 233.925 61.5895 233.606 61.4072C233.287 61.2204 232.87 61.127 232.355 61.127H230.004V70H228.684V60.0469H232.355C233.107 60.0469 233.743 60.1768 234.262 60.4365C234.782 60.6963 235.176 61.0563 235.445 61.5166C235.714 61.9723 235.848 62.4941 235.848 63.082C235.848 63.7201 235.714 64.2646 235.445 64.7158C235.176 65.167 234.782 65.5111 234.262 65.748C233.743 65.9805 233.107 66.0967 232.355 66.0967ZM239.211 60.0469V70H237.892V60.0469H239.211ZM248.214 68.9268V70H242.943V68.9268H248.214ZM243.21 60.0469V70H241.891V60.0469H243.21ZM247.517 64.3262V65.3994H242.943V64.3262H247.517ZM248.146 60.0469V61.127H242.943V60.0469H248.146ZM256.806 68.9268V70H250.066V68.9268H256.806ZM256.588 61.0039L250.381 70H249.567V69.0156L255.767 60.0469H256.588V61.0039ZM256.027 60.0469V61.127H249.656V60.0469H256.027ZM262.583 60.9287L259.288 70H257.941L261.735 60.0469H262.603L262.583 60.9287ZM265.344 70L262.043 60.9287L262.022 60.0469H262.89L266.698 70H265.344ZM265.173 66.3154V67.3955H259.582V66.3154H265.173Z" fill="black"/>
<rect x="2.5" y="12.5" width="57" height="57" fill="#FF8435" stroke="black" stroke-width="5"/>
<ellipse cx="15.5" cy="27.7333" rx="4.5" ry="4.2" fill="black"/>
<ellipse cx="30.5" cy="27.7333" rx="4.5" ry="4.2" fill="black"/>
<ellipse cx="45.5" cy="27.7333" rx="4.5" ry="4.2" fill="black"/>
<ellipse cx="45.5" cy="42.8" rx="4.5" ry="4.2" fill="black"/>
<ellipse cx="31.5" cy="42.8" rx="4.5" ry="4.2" fill="black"/>
<ellipse cx="45.5" cy="56.8667" rx="4.5" ry="4.2" fill="black"/>
</svg>
